<svg height="512" viewBox="0 0 46 60" width="512" xmlns="http://www.w3.org/2000/svg" fill="#586782"><g id="Page-1" fill="none" fill-rule="evenodd"><g id="036---Circuit" fill="rgb(0,0,0)" fill-rule="nonzero"><path id="Shape" d="m43 0h-40c-1.65685425 0-3 1.34314575-3 3v54c0 1.6568542 1.34314575 3 3 3h40c1.6568542 0 3-1.3431458 3-3v-54c0-1.65685425-1.3431458-3-3-3zm0 58h-40c-.55228475 0-1-.4477153-1-1v-25.586l7.117-7.114c.56755259-.563201.8856124-1.3304348.883-2.13v-8.27c2.5149632-.5133647 4.2326695-2.8476987 3.9746808-5.4015243-.2579888-2.55382558-2.4078572-4.49745519-4.9746808-4.49745519-2.56682359 0-4.71669199 1.94362961-4.97468077 4.49745519-.25798877 2.5538256 1.45971755 4.8881596 3.97468077 5.4015243v8.27c-.00030678.2682872-.10840432.525199-.3.713l-5.7 5.703v-25.586c0-.55228475.44771525-1 1-1h40c.5522847 0 1 .44771525 1 1v25.586l-7.117 7.114c-.5675526.563201-.8856124 1.3304348-.883 2.13v8.27c-2.5149632.5133647-4.2326695 2.8476987-3.9746808 5.4015243.2579888 2.5538256 2.4078572 4.4974552 4.9746808 4.4974552s4.716692-1.9436296 4.9746808-4.4974552c.2579887-2.5538256-1.4597176-4.8881596-3.9746808-5.4015243v-8.27c.0003068-.2682872.1084043-.525199.3-.713l5.7-5.7v25.583c0 .5522847-.4477153 1-1 1zm-34-46c-1.65685425 0-3-1.3431458-3-3 0-1.65685425 1.34314575-3 3-3 1.6568542 0 3 1.34314575 3 3 0 .79564947-.3160705 1.5587112-.8786797 2.1213203-.5626091.5626092-1.32567083.8786797-2.1213203.8786797zm28 36c1.6568542 0 3 1.3431458 3 3s-1.3431458 3-3 3-3-1.3431458-3-3 1.3431458-3 3-3z"/><circle id="Oval" cx="9" cy="9" r="1"/><circle id="Oval" cx="23" cy="9" r="1"/><circle id="Oval" cx="37" cy="9" r="1"/><path id="Shape" d="m10 46.1v-8.271c-.00020875-.2655413.1052054-.5202623.293-.708l12.828-12.828c.5649598-.5613398.8815349-1.3255858.879-2.122v-8.271c2.5149632-.5133647 4.2326695-2.8476987 3.9746808-5.4015243-.2579888-2.55382558-2.4078572-4.49745519-4.9746808-4.49745519s-4.716692 1.94362961-4.9746808 4.49745519c-.2579887 2.5538256 1.4597176 4.8881596 3.9746808 5.4015243v8.272c.0002088.2655413-.1052054.5202623-.293.708l-12.828 12.827c-.56495984.5613398-.88153492 1.3255858-.879 2.122v8.271c-2.51496322.5133647-4.23266954 2.8476987-3.97468077 5.4015243.25798878 2.5538256 2.40785718 4.4974552 4.97468077 4.4974552 2.5668236 0 4.716692-1.9436296 4.9746808-4.4974552.2579887-2.5538256-1.4597176-4.8881596-3.9746808-5.4015243zm10-37.1c0-1.65685425 1.3431458-3 3-3s3 1.34314575 3 3c0 1.6568542-1.3431458 3-3 3s-3-1.3431458-3-3zm-11 45c-1.65685425 0-3-1.3431458-3-3s1.34314575-3 3-3c1.6568542 0 3 1.3431458 3 3s-1.3431458 3-3 3z"/><circle id="Oval" cx="9" cy="51" r="1"/><path id="Shape" d="m24 46.1v-8.271c-.0002088-.2655413.1052054-.5202623.293-.708l12.828-12.828c.5649598-.5613398.8815349-1.3255858.879-2.122v-8.271c2.5149632-.5133647 4.2326695-2.8476987 3.9746808-5.4015243-.2579888-2.55382558-2.4078572-4.49745519-4.9746808-4.49745519s-4.716692 1.94362961-4.9746808 4.49745519c-.2579887 2.5538256 1.4597176 4.8881596 3.9746808 5.4015243v8.272c.0002088.2655413-.1052054.5202623-.293.708l-12.828 12.827c-.5649598.5613398-.8815349 1.3255858-.879 2.122v8.271c-2.5149632.5133647-4.2326695 2.8476987-3.9746808 5.4015243.2579888 2.5538256 2.4078572 4.4974552 4.9746808 4.4974552s4.716692-1.9436296 4.9746808-4.4974552c.2579887-2.5538256-1.4597176-4.8881596-3.9746808-5.4015243zm10-37.1c0-1.65685425 1.3431458-3 3-3s3 1.34314575 3 3c0 1.6568542-1.3431458 3-3 3s-3-1.3431458-3-3zm-11 45c-1.6568542 0-3-1.3431458-3-3s1.3431458-3 3-3 3 1.3431458 3 3-1.3431458 3-3 3z"/><circle id="Oval" cx="23" cy="51" r="1"/><circle id="Oval" cx="37" cy="51" r="1"/></g></g></svg>